<svg width="18" height="18" viewBox="0 0 18 18" fill="none" xmlns="http://www.w3.org/2000/svg">
<path d="M9 1C4.589 1 1 4.589 1 9C1 13.411 4.589 17 9 17C13.411 17 17 13.411 17 9C17 4.589 13.411 1 9 1ZM6 9C5.448 9 5 8.552 5 8C5 7.448 5.448 7 6 7C6.552 7 7 7.448 7 8C7 8.552 6.552 9 6 9ZM9 13.25C8.034 13.25 7.25 12.467 7.25 11.5C7.25 10.533 8.034 9.75 9 9.75C9.966 9.75 10.75 10.533 10.75 11.5C10.75 12.467 9.966 13.25 9 13.25ZM12 9C11.448 9 11 8.552 11 8C11 7.448 11.448 7 12 7C12.552 7 13 7.448 13 8C13 8.552 12.552 9 12 9Z" fill="#1D202A"/>
</svg>
